<svg width="1170" height="808" viewBox="0 0 1170 808" fill="none" xmlns="http://www.w3.org/2000/svg">
<rect width="1170" height="808" fill="#987136"/>
<path d="M224.526 147.496H765.474V217H224.526V147.496Z" fill="white"/>
<path d="M244.052 181.752C244.052 200.945 235.31 216.504 224.526 216.504C213.742 216.504 205 200.945 205 181.752C205 162.559 213.742 147 224.526 147C235.31 147 244.052 162.559 244.052 181.752Z" fill="white"/>
<path d="M785 181.752C785 200.945 776.258 216.504 765.474 216.504C754.69 216.504 745.948 200.945 745.948 181.752C745.948 162.559 754.69 147 765.474 147C776.258 147 785 162.559 785 181.752Z" fill="white"/>
<path d="M509.106 521.496H899.894V591H509.106V521.496Z" fill="white"/>
<path d="M523.212 555.752C523.212 574.945 516.897 590.504 509.106 590.504C501.315 590.504 495 574.945 495 555.752C495 536.559 501.315 521 509.106 521C516.897 521 523.212 536.559 523.212 555.752Z" fill="white"/>
<path d="M914 555.752C914 574.945 907.685 590.504 899.894 590.504C892.103 590.504 885.788 574.945 885.788 555.752C885.788 536.559 892.103 521 899.894 521C907.685 521 914 536.559 914 555.752Z" fill="white"/>
<path d="M206.926 358.496H842.074V428H206.926V358.496Z" fill="white"/>
<path d="M229.853 392.752C229.853 411.945 219.588 427.504 206.926 427.504C194.265 427.504 184 411.945 184 392.752C184 373.559 194.265 358 206.926 358C219.588 358 229.853 373.559 229.853 392.752Z" fill="white"/>
<path d="M865 392.752C865 411.945 854.735 427.504 842.074 427.504C829.412 427.504 819.147 411.945 819.147 392.752C819.147 373.559 829.412 358 842.074 358C854.735 358 865 373.559 865 392.752Z" fill="white"/>
<path d="M299.334 246.496H862.666V316H299.334V246.496Z" fill="white"/>
<path d="M319.668 280.752C319.668 299.945 310.564 315.504 299.334 315.504C288.104 315.504 279 299.945 279 280.752C279 261.559 288.104 246 299.334 246C310.564 246 319.668 261.559 319.668 280.752Z" fill="white"/>
<path d="M883 280.752C883 299.945 873.896 315.504 862.666 315.504C851.436 315.504 842.332 299.945 842.332 280.752C842.332 261.559 851.436 246 862.666 246C873.896 246 883 261.559 883 280.752Z" fill="white"/>
<path d="M290.334 625.496H853.666V695H290.334V625.496Z" fill="white"/>
<path d="M310.668 659.752C310.668 678.945 301.564 694.504 290.334 694.504C279.104 694.504 270 678.945 270 659.752C270 640.559 279.104 625 290.334 625C301.564 625 310.668 640.559 310.668 659.752Z" fill="white"/>
<path d="M874 659.752C874 678.945 864.896 694.504 853.666 694.504C842.436 694.504 833.332 678.945 833.332 659.752C833.332 640.559 842.436 625 853.666 625C864.896 625 874 640.559 874 659.752Z" fill="white"/>
<rect x="460" y="684" width="155" height="68" fill="white"/>
<rect x="615" y="574" width="155" height="68" fill="white"/>
<rect x="340" y="408" width="155" height="68" fill="white"/>
<rect x="629" y="299" width="155" height="68" fill="white"/>
<rect x="417" y="197" width="155" height="68" fill="white"/>
<ellipse cx="46.5" cy="660.5" rx="46.5" ry="50.5" fill="white"/>
<ellipse cx="93" cy="608" rx="47" ry="51" fill="white"/>
<ellipse cx="279.5" cy="608" rx="46.5" ry="51" fill="white"/>
<ellipse cx="188.5" cy="574.5" rx="73.5" ry="68.5" fill="white"/>
<ellipse cx="318.5" cy="659.5" rx="46.5" ry="50.5" fill="white"/>
<rect x="68" y="619" width="228" height="82" fill="white"/>
<ellipse cx="851.5" cy="436.5" rx="46.5" ry="50.5" fill="white"/>
<ellipse cx="898" cy="384" rx="47" ry="51" fill="white"/>
<ellipse cx="1084.5" cy="384" rx="46.5" ry="51" fill="white"/>
<ellipse cx="993.5" cy="350.5" rx="73.5" ry="68.5" fill="white"/>
<ellipse cx="1123.5" cy="435.5" rx="46.5" ry="50.5" fill="white"/>
<rect x="873" y="395" width="228" height="82" fill="white"/>
<ellipse cx="358.5" cy="155.5" rx="46.5" ry="50.5" fill="white"/>
<ellipse cx="405" cy="103" rx="47" ry="51" fill="white"/>
<ellipse cx="591.5" cy="103" rx="46.5" ry="51" fill="white"/>
<ellipse cx="500.5" cy="69.5" rx="73.5" ry="68.5" fill="white"/>
<ellipse cx="630.5" cy="154.5" rx="46.5" ry="50.5" fill="white"/>
<rect x="380" y="114" width="228" height="82" fill="white"/>
<path d="M241 737.5H989V807.5H241V737.5Z" fill="white"/>
<path d="M268 772C268 791.33 255.912 807 241 807C226.088 807 214 791.33 214 772C214 752.67 226.088 737 241 737C255.912 737 268 752.67 268 772Z" fill="white"/>
<path d="M1016 772C1016 791.33 1003.91 807 989 807C974.088 807 962 791.33 962 772C962 752.67 974.088 737 989 737C1003.91 737 1016 752.67 1016 772Z" fill="white"/>
<path d="M294.975 703.5C294.975 730.01 243.45 751.5 182.975 751.5C122.5 751.5 73.4749 730.01 73.4749 703.5C90.5 682.5 122.5 655.5 182.975 655.5C243.45 655.5 271.5 680 294.975 703.5Z" fill="#987136"/>
<path d="M1095.5 476C1095.5 502.51 1043.98 524 983.5 524C923.025 524 874 502.51 874 476C891.025 455 923.025 428 983.5 428C1043.98 428 1072.03 452.5 1095.5 476Z" fill="#987136"/>
<path d="M212.01 462.496H987.99V532H212.01V462.496Z" fill="white"/>
<path d="M240.02 496.752C240.02 515.945 227.479 531.504 212.01 531.504C196.54 531.504 184 515.945 184 496.752C184 477.559 196.54 462 212.01 462C227.479 462 240.02 477.559 240.02 496.752Z" fill="white"/>
<path d="M1016 496.752C1016 515.945 1003.46 531.504 987.99 531.504C972.521 531.504 959.98 515.945 959.98 496.752C959.98 477.559 972.521 462 987.99 462C1003.46 462 1016 477.559 1016 496.752Z" fill="white"/>
</svg>
