<svg width="482" height="531" viewBox="0 0 482 531" fill="none" xmlns="http://www.w3.org/2000/svg">
<ellipse cx="241.5" cy="265" rx="86.5" ry="86" fill="white"/>
<rect x="221" y="19" width="41" height="189" fill="white"/>
<ellipse cx="241.5" cy="22" rx="20.5" ry="22" fill="white"/>
<rect x="157.478" y="69.4261" width="41" height="119.709" transform="rotate(-44.7917 157.478 69.4261)" fill="white"/>
<ellipse cx="173.365" cy="56.3317" rx="20.5" ry="13.9344" transform="rotate(-44.7917 173.365 56.3317)" fill="white"/>
<rect x="298.494" y="41.4234" width="41" height="119.709" transform="rotate(45.5765 298.494 41.4234)" fill="white"/>
<ellipse cx="311.486" cy="57.3943" rx="20.5" ry="13.9344" transform="rotate(45.5765 311.486 57.3943)" fill="white"/>
<rect x="16.5868" y="160.098" width="41" height="189" transform="rotate(-60.8082 16.5868 160.098)" fill="white"/>
<ellipse cx="29.2044" cy="143.665" rx="20.5" ry="22" transform="rotate(-60.8082 29.2044 143.665)" fill="white"/>
<rect x="29.6268" y="240.147" width="41" height="119.709" transform="rotate(-105.6 29.6268 240.147)" fill="white"/>
<ellipse cx="25.9442" cy="219.891" rx="20.5" ry="13.9344" transform="rotate(-105.6 25.9442 219.891)" fill="white"/>
<rect x="73.959" y="103.383" width="41" height="119.709" transform="rotate(-15.2318 73.959 103.383)" fill="white"/>
<ellipse cx="94.2381" cy="99.8307" rx="20.5" ry="13.9344" transform="rotate(-15.2318 94.2381 99.8307)" fill="white"/>
<rect x="444.53" y="123.361" width="41" height="189" transform="rotate(58.9499 444.53 123.361)" fill="white"/>
<ellipse cx="452.533" cy="142.471" rx="20.5" ry="22" transform="rotate(58.9499 452.533 142.471)" fill="white"/>
<rect x="368.565" y="94.9498" width="41" height="119.709" transform="rotate(14.1582 368.565 94.9498)" fill="white"/>
<ellipse cx="387.978" cy="101.807" rx="20.5" ry="13.9344" transform="rotate(14.1582 387.978 101.807)" fill="white"/>
<rect x="465.29" y="201.317" width="41" height="119.709" transform="rotate(104.526 465.29 201.317)" fill="white"/>
<ellipse cx="458.308" cy="220.685" rx="20.5" ry="13.9344" transform="rotate(104.526 458.308 220.685)" fill="white"/>
<rect x="465.551" y="371.209" width="41" height="189" transform="rotate(120.6 465.551 371.209)" fill="white"/>
<ellipse cx="452.533" cy="387.327" rx="20.5" ry="22" transform="rotate(120.6 452.533 387.327)" fill="white"/>
<rect x="454.482" y="290.864" width="41" height="119.709" transform="rotate(75.8084 454.482 290.864)" fill="white"/>
<ellipse cx="457.666" cy="311.205" rx="20.5" ry="13.9344" transform="rotate(75.8084 457.666 311.205)" fill="white"/>
<rect x="406.802" y="426.497" width="41" height="119.709" transform="rotate(166.177 406.802 426.497)" fill="white"/>
<ellipse cx="386.442" cy="429.55" rx="20.5" ry="13.9344" transform="rotate(166.177 386.442 429.55)" fill="white"/>
<rect x="261.385" y="511.197" width="41" height="189" transform="rotate(-179.638 261.385 511.197)" fill="white"/>
<ellipse cx="240.905" cy="508.068" rx="20.5" ry="22" transform="rotate(-179.638 240.905 508.068)" fill="white"/>
<rect x="325.224" y="461.173" width="41" height="119.709" transform="rotate(135.57 325.224 461.173)" fill="white"/>
<ellipse cx="309.254" cy="474.167" rx="20.5" ry="13.9344" transform="rotate(135.57 309.254 474.167)" fill="white"/>
<rect x="184.034" y="488.285" width="41" height="119.709" transform="rotate(-134.062 184.034 488.285)" fill="white"/>
<ellipse cx="171.143" cy="472.232" rx="20.5" ry="13.9344" transform="rotate(-134.062 171.143 472.232)" fill="white"/>
<rect x="38.2048" y="407.388" width="41" height="189" transform="rotate(-120.555 38.2048 407.388)" fill="white"/>
<ellipse cx="30.3666" cy="388.21" rx="20.5" ry="22" transform="rotate(-120.555 30.3666 388.21)" fill="white"/>
<rect x="113.921" y="436.454" width="41" height="119.709" transform="rotate(-165.347 113.921 436.454)" fill="white"/>
<ellipse cx="94.5685" cy="429.43" rx="20.5" ry="13.9344" transform="rotate(-165.347 94.5685 429.43)" fill="white"/>
<rect x="18.1188" y="329.256" width="41" height="119.709" transform="rotate(-74.9788 18.1188 329.256)" fill="white"/>
<ellipse cx="25.2672" cy="309.948" rx="20.5" ry="13.9344" transform="rotate(-74.9788 25.2672 309.948)" fill="white"/>
</svg>
