<svg width="370" height="360" viewBox="0 0 370 360" fill="none" xmlns="http://www.w3.org/2000/svg">
<path d="M370 123C363.603 193.902 281.5 354.5 185.5 360C95 353.5 9.73755 194.659 0 123C0 42.6426 80.708 0 181.5 0C282.292 0 370 42.6426 370 123Z" fill="white"/>
<path d="M168.771 308.379C168.771 331.784 180.998 350.758 128.326 350.758C105.989 350.758 88.8217 356.812 86 308.379C86 266 105.989 266 128.326 266C150.663 266 168.771 284.974 168.771 308.379Z" fill="white"/>
<path d="M202.229 308.379C202.229 331.784 190.002 350.758 242.674 350.758C265.011 350.758 282.178 356.812 285 308.379C285 266 265.011 266 242.674 266C220.337 266 202.229 284.974 202.229 308.379Z" fill="white"/>
</svg>
