<svg width="187" height="166" viewBox="0 0 187 166" fill="none" xmlns="http://www.w3.org/2000/svg">
<rect width="187" height="166" fill="#5AAAF3"/>
<path d="M184.5 83C184.5 127.517 149.297 163.5 106 163.5C62.7028 163.5 27.5 127.517 27.5 83C27.5 38.4832 62.7028 2.5 106 2.5C149.297 2.5 184.5 38.4832 184.5 83Z" fill="#5AAAF3" stroke="white" stroke-width="5"/>
<path d="M160.5 83C160.5 113.632 135.448 138.5 104.5 138.5C73.5518 138.5 48.5 113.632 48.5 83C48.5 52.3684 73.5518 27.5 104.5 27.5C135.448 27.5 160.5 52.3684 160.5 83Z" fill="#5AAAF3" stroke="white" stroke-width="5"/>
<path d="M129.5 84.5C129.5 97.6684 118.395 108.5 104.5 108.5C90.6048 108.5 79.5 97.6684 79.5 84.5C79.5 71.3316 90.6048 60.5 104.5 60.5C118.395 60.5 129.5 71.3316 129.5 84.5Z" fill="#5AAAF3" stroke="white" stroke-width="5"/>
<rect x="152.95" y="61" width="26.4809" height="89.9164" transform="rotate(27.45 152.95 61)" fill="#5AAAF3"/>
<rect x="42.9496" width="27.7853" height="93.1713" transform="rotate(27.45 42.9496 0)" fill="#5AAAF3"/>
<rect x="59.5812" y="10.6181" width="7" height="9" transform="rotate(-21.7596 59.5812 10.6181)" fill="#5AAAF3"/>
<rect x="24" y="84.3367" width="7" height="9.22407" transform="rotate(-2.75719 24 84.3367)" fill="#5AAAF3"/>
<rect x="153" y="60.8124" width="7" height="9" transform="rotate(-15.0059 153 60.8124)" fill="#5AAAF3"/>
<rect x="110.579" y="134.158" width="7" height="9" transform="rotate(-6.21325 110.579 134.158)" fill="#5AAAF3"/>
</svg>
