<svg width="683" height="480" viewBox="0 0 683 480" fill="none" xmlns="http://www.w3.org/2000/svg">
<rect x="111.204" width="283.593" height="61" fill="white"/>
<ellipse cx="394.771" cy="30.5" rx="22.4587" ry="30.5" fill="white"/>
<ellipse cx="394.771" cy="30.5" rx="22.4587" ry="30.5" fill="white"/>
<ellipse cx="111.229" cy="30.5" rx="22.4587" ry="30.5" fill="white"/>
<rect x="279" y="55" width="60" height="28" fill="white"/>
<rect x="235.192" y="74" width="308.616" height="62" fill="white"/>
<ellipse cx="543.78" cy="105" rx="24.4404" ry="31" fill="white"/>
<ellipse cx="543.78" cy="105" rx="24.4404" ry="31" fill="white"/>
<ellipse cx="235.22" cy="105" rx="24.4404" ry="31" fill="white"/>
<rect x="417.794" y="129.902" width="65.2941" height="28.459" fill="white"/>
<rect x="392.08" y="147" width="229.84" height="62" fill="white"/>
<ellipse cx="621.899" cy="178" rx="18.2018" ry="31" fill="white"/>
<ellipse cx="621.899" cy="178" rx="18.2018" ry="31" fill="white"/>
<ellipse cx="392.101" cy="178" rx="18.2018" ry="31" fill="white"/>
<rect x="30.2128" y="172" width="182.574" height="62" fill="white"/>
<rect x="138.239" y="227.902" width="38.6274" height="28.459" fill="white"/>
<rect x="89.5057" y="245" width="189.989" height="62" fill="white"/>
<rect x="201.918" y="300.902" width="40.1961" height="28.459" fill="white"/>
<rect x="134.384" y="319" width="212.231" height="62" fill="white"/>
<rect x="397.213" y="271" width="182.574" height="62" fill="white"/>
<rect x="505.239" y="326.902" width="38.6274" height="28.459" fill="white"/>
<rect x="440.432" y="344" width="188.135" height="62" fill="white"/>
<ellipse cx="628.55" cy="375" rx="14.8991" ry="31" fill="white"/>
<rect x="551.748" y="399.902" width="39.8039" height="28.459" fill="white"/>
<rect x="251.78" y="418" width="399.439" height="62" fill="white"/>
<ellipse cx="651.183" cy="449" rx="31.633" ry="31" fill="white"/>
<ellipse cx="251.817" cy="449" rx="31.633" ry="31" fill="white"/>
<ellipse cx="213.5" cy="203" rx="26.5" ry="31" fill="white"/>
<ellipse cx="280.5" cy="276" rx="26.5" ry="31" fill="white"/>
<ellipse cx="344.5" cy="350" rx="26.5" ry="31" fill="white"/>
<ellipse cx="576.5" cy="302" rx="26.5" ry="31" fill="white"/>
<ellipse cx="631" cy="375" rx="27" ry="31" fill="white"/>
<ellipse cx="437.5" cy="375" rx="26.5" ry="31" fill="white"/>
<ellipse cx="398" cy="302" rx="27" ry="31" fill="white"/>
<ellipse cx="131.5" cy="350" rx="26.5" ry="31" fill="white"/>
<ellipse cx="82.5" cy="276" rx="26.5" ry="31" fill="white"/>
<ellipse cx="85.5" cy="276" rx="26.5" ry="31" fill="white"/>
<ellipse cx="26.5" cy="203" rx="26.5" ry="31" fill="white"/>
</svg>
