<svg width="374" height="354" viewBox="0 0 374 354" fill="none" xmlns="http://www.w3.org/2000/svg">
<rect width="374" height="354" fill="#FEDCEA"/>
<ellipse cx="187.5" cy="180.5" rx="41.5" ry="42.5" fill="white"/>
<path d="M232 86C232 119.689 212.957 160 187 160C161.043 160 142 119.689 142 86C142 52.3106 161.043 38 187 38C212.957 38 232 52.3106 232 86Z" fill="white"/>
<path d="M192.158 55.8653C189.762 59.312 184.657 59.2954 182.283 55.8331L150.441 9.39303C147.71 5.41142 150.561 0 155.389 0L219.521 0C224.366 0 227.213 5.4468 224.447 9.42515L192.158 55.8653Z" fill="#FEDCEA"/>
<path d="M291.571 191.499C259.595 202.105 215.339 196.721 207.167 172.084C198.995 147.447 231.261 116.681 263.237 106.075C295.213 95.4688 314.791 109.038 322.963 133.675C331.135 158.313 323.548 180.892 291.571 191.499Z" fill="white"/>
<path d="M307.63 144.195C303.605 143.006 302.013 138.156 304.552 134.813L338.606 89.9685C341.525 86.1238 347.559 87.126 349.079 91.7082L369.269 152.579C370.795 157.178 366.521 161.595 361.874 160.222L307.63 144.195Z" fill="#FEDCEA"/>
<path d="M109.961 106.075C141.937 116.681 174.203 147.446 166.031 172.083C157.859 196.721 113.603 202.104 81.627 191.498C49.6507 180.892 42.0628 158.312 50.2347 133.675C58.4066 109.038 77.9846 95.4685 109.961 106.075Z" fill="white"/>
<path d="M68.8153 134.404C71.3324 137.763 69.7096 142.603 65.6761 143.766L11.5726 159.369C6.93401 160.707 2.69526 156.298 4.21512 151.715L24.4051 90.8448C25.9305 86.2457 31.9966 85.2584 34.9019 89.1363L68.8153 134.404Z" fill="#FEDCEA"/>
<path d="M93.9609 231.232C113.532 203.811 152.45 182.063 173.578 197.142C194.706 212.222 186.788 256.095 167.216 283.517C147.644 310.938 123.831 311.523 102.703 296.444C81.5754 281.364 74.3894 258.653 93.9609 231.232Z" fill="white"/>
<path d="M108.884 278.906C112.837 277.493 116.982 280.471 116.902 284.669L115.842 340.967C115.751 345.794 110.287 348.542 106.357 345.738L54.1576 308.481C50.2136 305.666 51.0607 299.579 55.6233 297.948L108.884 278.906Z" fill="#FEDCEA"/>
<path d="M205.993 283.518C186.42 256.098 178.499 212.225 199.626 197.144C220.753 182.063 259.672 203.809 279.245 231.23C298.818 258.65 291.634 281.361 270.506 296.442C249.379 311.523 225.566 310.939 205.993 283.518Z" fill="white"/>
<path d="M255.929 284.898C255.877 280.7 260.041 277.748 263.985 279.187L316.883 298.485C321.418 300.139 322.242 306.2 318.313 309.005L266.115 346.264C262.171 349.08 256.69 346.3 256.63 341.455L255.929 284.898Z" fill="#FEDCEA"/>
<circle cx="187.5" cy="171.5" r="17.5" fill="#FEDCEA"/>
<line x1="187.053" y1="141.038" x2="187.053" y2="161.038" stroke="#FEDCEA"/>
<path d="M191 137C191 139.209 189.209 141 187 141C184.791 141 183 139.209 183 137C183 134.791 184.791 133 187 133C189.209 133 191 134.791 191 137Z" fill="#FEDCEA"/>
<line x1="175.733" y1="141.713" x2="180.164" y2="161.216" stroke="#FEDCEA"/>
<path d="M178.687 136.901C179.177 139.055 177.827 141.198 175.673 141.687C173.519 142.177 171.376 140.827 170.886 138.673C170.397 136.519 171.746 134.376 173.901 133.886C176.055 133.397 178.198 134.746 178.687 136.901Z" fill="#FEDCEA"/>
<line x1="198.384" y1="141.736" x2="193.953" y2="161.239" stroke="#FEDCEA"/>
<path d="M203.127 138.673C202.638 140.827 200.495 142.177 198.34 141.687C196.186 141.198 194.837 139.055 195.326 136.901C195.816 134.746 197.959 133.397 200.113 133.886C202.267 134.376 203.617 136.519 203.127 138.673Z" fill="#FEDCEA"/>
<line x1="186.961" y1="201.076" x2="186.962" y2="181.076" stroke="#FEDCEA"/>
<path d="M183.014 205.114C183.014 202.905 184.805 201.114 187.014 201.114C189.223 201.115 191.014 202.906 191.014 205.115C191.014 207.324 189.223 209.115 187.013 209.114C184.804 209.114 183.014 207.323 183.014 205.114Z" fill="#FEDCEA"/>
<line x1="198.281" y1="200.403" x2="193.851" y2="180.899" stroke="#FEDCEA"/>
<path d="M195.326 205.214C194.837 203.06 196.187 200.917 198.341 200.428C200.495 199.939 202.638 201.288 203.128 203.443C203.617 205.597 202.267 207.74 200.113 208.229C197.959 208.718 195.816 207.369 195.326 205.214Z" fill="#FEDCEA"/>
<line x1="175.63" y1="200.377" x2="180.063" y2="180.875" stroke="#FEDCEA"/>
<path d="M170.887 203.44C171.376 201.286 173.519 199.937 175.674 200.426C177.828 200.916 179.177 203.059 178.688 205.213C178.198 207.367 176.055 208.717 173.901 208.227C171.746 207.738 170.397 205.594 170.887 203.44Z" fill="#FEDCEA"/>
<line x1="219.854" y1="169.488" x2="199.914" y2="171.041" stroke="#FEDCEA"/>
<path d="M224.186 173.11C221.983 173.281 220.059 171.635 219.887 169.432C219.716 167.23 221.362 165.305 223.565 165.134C225.767 164.962 227.692 166.609 227.863 168.811C228.035 171.014 226.388 172.938 224.186 173.11Z" fill="#FEDCEA"/>
<line x1="218.302" y1="158.255" x2="199.202" y2="164.187" stroke="#FEDCEA"/>
<path d="M223.329 160.826C221.219 161.482 218.978 160.302 218.323 158.193C217.668 156.083 218.847 153.842 220.956 153.186C223.066 152.531 225.308 153.71 225.963 155.82C226.618 157.93 225.439 160.171 223.329 160.826Z" fill="#FEDCEA"/>
<line x1="220.037" y1="180.839" x2="200.249" y2="177.935" stroke="#FEDCEA"/>
<path d="M223.459 185.33C221.274 185.009 219.762 182.977 220.082 180.792C220.403 178.606 222.435 177.094 224.621 177.415C226.807 177.736 228.318 179.768 227.998 181.953C227.677 184.139 225.645 185.651 223.459 185.33Z" fill="#FEDCEA"/>
<line x1="155.412" y1="169.856" x2="175.322" y2="171.75" stroke="#FEDCEA"/>
<path d="M151.767 165.544C153.966 165.753 155.579 167.706 155.37 169.905C155.16 172.104 153.208 173.717 151.009 173.508C148.809 173.299 147.196 171.346 147.406 169.147C147.615 166.948 149.567 165.335 151.767 165.544Z" fill="#FEDCEA"/>
<line x1="155.012" y1="181.188" x2="174.847" y2="178.625" stroke="#FEDCEA"/>
<path d="M150.501 177.792C152.692 177.509 154.698 179.055 154.981 181.246C155.264 183.437 153.717 185.443 151.526 185.726C149.336 186.009 147.33 184.462 147.047 182.272C146.764 180.081 148.31 178.075 150.501 177.792Z" fill="#FEDCEA"/>
<line x1="157.181" y1="158.642" x2="176.176" y2="164.901" stroke="#FEDCEA"/>
<path d="M154.581 153.63C156.679 154.321 157.82 156.583 157.128 158.681C156.437 160.779 154.176 161.919 152.077 161.228C149.979 160.537 148.839 158.275 149.53 156.177C150.222 154.079 152.483 152.938 154.581 153.63Z" fill="#FEDCEA"/>
</svg>
